<?xml version="1.0" encoding="UTF-8"?>
<svg width="25px" height="9px" viewBox="0 0 25 9" version="1.1" xmlns="http://www.w3.org/2000/svg" xmlns:xlink="http://www.w3.org/1999/xlink">
    <!-- Generator: Sketch 49.2 (51160) - http://www.bohemiancoding.com/sketch -->
    <title>Combined Shape</title>
    <desc>Created with Sketch.</desc>
    <defs></defs>
    <g id="Page-1" stroke="none" stroke-width="1" fill="none" fill-rule="evenodd">
        <path d="M12.6808693,2.52045104 L12.6808693,2.06398482 L14.048117,2.06398482 L14.048117,8.48239004 L13.2659151,8.48239004 C12.9439124,8.48239004 12.6825323,8.22236344 12.6808772,7.90080374 C12.6806605,7.90096172 12.6804438,7.90111968 12.6802271,7.90127761 C12.129539,8.30399226 11.448805,8.54305395 10.7134839,8.54305395 C8.87197018,8.54305395 7.37885092,7.05092395 7.37885092,5.21063028 C7.37885092,3.37033661 8.87197018,1.87820661 10.7134839,1.87820661 C11.448805,1.87820661 12.129539,2.1172683 12.6802271,2.51998295 C12.6804412,2.52013896 12.6806552,2.520295 12.6808693,2.52045106 Z M7.02456422,0 L7.02456422,0.20809598 C7.02456422,0.596210225 6.97270642,0.913087295 6.72048165,1.28483624 L6.68997706,1.31965261 C6.63490826,1.38206536 6.50566514,1.52871125 6.44417431,1.60829152 L2.05488532,7.11746011 L7.02456422,7.11746011 L7.02456422,7.89737882 C7.02456422,8.22051321 6.76238532,8.48235796 6.4390367,8.48235796 L0,8.48235796 L0,8.11462011 C0,7.66425356 0.11190367,7.46337756 0.253348624,7.25399803 L4.93243119,1.46244785 L0.195068807,1.46244785 L0.195068807,0 L7.02456422,0 Z M15.7064427,8.48239004 C15.4375206,8.48239004 15.2188509,8.2638652 15.2188509,7.9952818 L15.2188509,3.20888173e-05 L16.6824289,3.20888173e-05 L16.6824289,8.48239004 L15.7064427,8.48239004 Z M21.0096009,1.83801536 C22.8639587,1.83801536 24.366711,3.34137645 24.366711,5.19290121 C24.366711,7.04603041 22.8639587,8.54939149 21.0096009,8.54939149 C19.1552431,8.54939149 17.6524908,7.04603041 17.6524908,5.19290121 C17.6524908,3.34137645 19.1552431,1.83801536 21.0096009,1.83801536 Z M10.7134839,7.17125701 C11.7971995,7.17125701 12.6754106,6.29362786 12.6754106,5.21063028 C12.6754106,4.12923714 11.7971995,3.25160799 10.7134839,3.25160799 C9.62976835,3.25160799 8.75155734,4.12923714 8.75155734,5.21063028 C8.75155734,6.29362786 9.62976835,7.17125701 10.7134839,7.17125701 Z M21.0096009,7.16796791 C22.0997385,7.16796791 22.9843716,6.283921 22.9843716,5.19290121 C22.9843716,4.10348586 22.0997385,3.21959939 21.0096009,3.21959939 C19.9178578,3.21959939 19.0348303,4.10348586 19.0348303,5.19290121 C19.0348303,6.283921 19.9178578,7.16796791 21.0096009,7.16796791 Z" id="Combined-Shape" fill="#0068FF"></path>
    </g>
</svg>