<?xml version="1.0" encoding="utf-8"?>
<svg xmlns="http://www.w3.org/2000/svg" height="63.038448mm" id="svg5" version="1.1" viewBox="0 0 298.6001 63.038448" width="298.6001mm">
  <defs id="defs2">
    <clipPath clipPathUnits="userSpaceOnUse" id="clipPath25">
      <path d="M 0,1.206994e-5 H 959.76 V 540.00001 H 0 Z" id="path23"/>
    </clipPath>
    <clipPath clipPathUnits="userSpaceOnUse" id="clipPath35">
      <path d="M 0,0 H 960 V 540 H 0 Z" id="path33"/>
    </clipPath>
    <clipPath clipPathUnits="userSpaceOnUse" id="clipPath1057">
      <rect height="65.130898" id="rect1059" style="stroke-width:0.271269" width="39.721909" x="-18.504492" y="104.38057"/>
    </clipPath>
  </defs>
  <g id="layer1" transform="translate(18.380696,-104.38057)">
    <g id="g17" transform="matrix(0.35277777,0,0,-0.35277777,-39.02458,225.93)"/>
    <g clip-path="url(#clipPath1057)" id="g1051">
      <path d="m 22.702501,142.58636 c -20.8441285,1.77045 -39.176857,-13.69183 -40.9473,-34.53595 -0.103657,-1.2204 -0.148061,-2.4451 -0.133054,-3.66984 l 16.9935769,0.20824 c -0.1413298,11.53231 9.0928752,20.99568 20.6252161,21.137 0.675181,0.008 1.350398,-0.0162 2.023251,-0.0733 z" id="path39" style="fill:#92d050;fill-opacity:0.749;fill-rule:nonzero;stroke:none;stroke-width:0.352778"/>
      <path d="m -1.8827476,167.42298 c 0,-20.91916 16.9583346,-37.8775 37.8775266,-37.8775 0.02978,0 0.05955,3e-5 0.08936,1e-4 l -0.03037,12.86168 c -13.815836,-0.0326 -25.042177,11.1409 -25.074774,24.95673 -3.5e-5,0.0196 -7e-5,0.0393 -7e-5,0.059 z" id="path41" style="fill:#002060;fill-opacity:0.749;fill-rule:nonzero;stroke:none;stroke-width:0.352778"/>
      <path d="m -18.183885,167.42298 c 0,-20.91916 16.9583377,-37.8775 37.877509,-37.8775 1.661901,0 3.322003,0.10939 4.96951,0.32741 l -2.153885,16.27498 c -11.749898,-1.55501 -22.53569758,6.70958 -24.0907208,18.45948 -0.1235393,0.93345 -0.1855082,1.87403 -0.1855082,2.81563 z" id="path43" style="fill:#ffc000;fill-opacity:0.749;fill-rule:nonzero;stroke:none;stroke-width:0.352778"/>
      <path d="m 36.38855,142.52533 c -20.919193,0 -37.87752,-16.95834 -37.87752,-37.8775 0,-0.0298 3.53e-5,-0.0596 1.059e-4,-0.0894 l 12.8616951,0.0304 c -0.03263,13.8158 11.140899,25.04214 24.956699,25.07474 0.01969,7e-5 0.03934,7e-5 0.05902,7e-5 z" id="path45" style="fill:#ff0000;fill-opacity:0.749;fill-rule:nonzero;stroke:none;stroke-width:0.352778"/>
    </g>
    <path d="M 44.082449,144.1339 H 33.790196 v 22.95301 H 20.87105 v -62.70092 h 23.297527 q 11.110465,0 17.1394,4.95234 6.028934,4.95234 6.028934,13.99574 0,6.41651 -2.799148,10.72289 -2.756084,4.26332 -8.397445,6.80409 l 13.565103,25.62297 v 0.60289 H 55.838872 Z M 33.790196,133.66939 H 44.21164 q 4.866212,0 7.536169,-2.45464 2.669957,-2.4977 2.669957,-6.84714 0,-4.43558 -2.540766,-6.97634 -2.497701,-2.54077 -7.708423,-2.54077 H 33.790196 Z" id="path295" style="font-weight:bold;font-size:88.1947px;font-family:Roboto;-inkscape-font-specification:Roboto-Bold;stroke-width:0.0846667"/>
    <path d="m 96.708357,167.41902 q -10.249189,0 -16.708762,-6.28732 -6.416509,-6.28731 -6.416509,-16.75182 v -1.20579 q 0,-7.0194 2.71302,-12.53157 2.713021,-5.55523 7.66536,-8.52664 4.995403,-3.01446 11.368848,-3.01446 9.560166,0 15.029276,6.02893 5.51217,6.02893 5.51217,17.09634 v 5.08153 H 86.200785 q 0.602893,4.56476 3.61736,7.32085 3.057532,2.75608 7.708424,2.75608 7.191661,0 11.239661,-5.21072 l 6.11506,6.84715 q -2.79915,3.96187 -7.57923,6.20119 -4.78009,2.19625 -10.593703,2.19625 z m -1.421106,-38.24067 q -3.703489,0 -6.028935,2.4977 -2.282383,2.4977 -2.92834,7.14859 h 17.311654 v -0.99046 q -0.0861,-4.13413 -2.23932,-6.37345 -2.153188,-2.28238 -6.115059,-2.28238 z" id="path297" style="font-weight:bold;font-size:88.1947px;font-family:Roboto;-inkscape-font-specification:Roboto-Bold;stroke-width:0.0846667"/>
    <path d="m 119.89138,142.82958 q 0,-6.93328 2.66996,-12.35932 2.66996,-5.42604 7.66536,-8.39744 5.03847,-2.9714 11.6703,-2.9714 9.43097,0 15.37378,5.77055 5.98587,5.77055 6.67489,15.67523 l 0.0861,3.18672 q 0,10.72289 -5.98587,17.22553 -5.98587,6.45957 -16.06281,6.45957 -10.07693,0 -16.10587,-6.45957 -5.98587,-6.45958 -5.98587,-17.57004 z m 12.44545,0.90434 q 0,6.63183 2.4977,10.16306 2.4977,3.48817 7.14859,3.48817 4.5217,0 7.06247,-3.44511 2.54076,-3.48816 2.54076,-11.11046 0,-6.50264 -2.54076,-10.07693 -2.54077,-3.5743 -7.14859,-3.5743 -4.56477,0 -7.06247,3.5743 -2.4977,3.53123 -2.4977,10.98127 z" id="path299" style="font-weight:bold;font-size:88.1947px;font-family:Roboto;-inkscape-font-specification:Roboto-Bold;stroke-width:0.0846667"/>
    <path d="m 182.14396,120.49186 0.38758,5.38298 q 4.9954,-6.24425 13.39285,-6.24425 7.40697,0 11.02433,4.34944 3.61737,4.34945 3.70349,13.00527 v 30.10161 h -12.44544 v -29.80016 q 0,-3.96187 -1.72255,-5.72749 -1.72256,-1.80868 -5.72749,-1.80868 -5.25379,0 -7.88068,4.47864 v 32.85769 h -12.44544 v -46.59505 z" id="path301" style="font-weight:bold;font-size:88.1947px;font-family:Roboto;-inkscape-font-specification:Roboto-Bold;stroke-width:0.0846667"/>
    <path d="m 218.93343,111.07984 q 0,-2.79915 1.85174,-4.60783 1.89481,-1.80868 5.1246,-1.80868 3.18672,0 5.08153,1.80868 1.89481,1.80868 1.89481,4.60783 0,2.84221 -1.93788,4.65089 -1.8948,1.80868 -5.03846,1.80868 -3.14366,0 -5.08153,-1.80868 -1.89481,-1.80868 -1.89481,-4.65089 z" id="path361" style="font-weight:bold;font-size:88.1947px;font-family:Roboto;-inkscape-font-specification:Roboto-Bold;stroke-width:0.0846667"/>
    <path d="m 232.15402,167.08691 h -12.48851 v -46.59505 h 12.48851 z" id="path303" style="font-weight:bold;font-size:88.1947px;font-family:Roboto;-inkscape-font-specification:Roboto-Bold;stroke-width:0.0846667"/>
    <path d="m 260.71148,157.38515 q 3.4451,0 5.59829,-1.89481 2.15319,-1.89481 2.23932,-5.03846 h 11.6703 q -0.0431,4.73702 -2.58383,8.69889 -2.54077,3.9188 -6.97634,6.11506 -4.39251,2.15319 -9.73242,2.15319 -9.99081,0 -15.76136,-6.33038 -5.77055,-6.37345 -5.77055,-17.57004 v -0.81821 q 0,-10.76596 5.72748,-17.18247 5.72749,-6.4165 15.7183,-6.4165 8.74195,0 13.99574,4.9954 5.29685,4.95234 5.38298,13.22059 h -11.6703 q -0.0861,-3.61736 -2.23932,-5.85668 -2.15319,-2.28238 -5.68442,-2.28238 -4.34945,0 -6.58877,3.18672 -2.19625,3.14366 -2.19625,10.24919 v 1.29192 q 0,7.19165 2.19625,10.33531 2.19626,3.14366 6.6749,3.14366 z" id="path305" style="font-weight:bold;font-size:88.1947px;font-family:Roboto;-inkscape-font-specification:Roboto-Bold;stroke-width:0.0846667"/>
  </g>
</svg>